<?xml version="1.0" encoding="utf-8"?>
<svg viewBox="0.983 0.828 119.279 85.034" xmlns="http://www.w3.org/2000/svg">
  <path d="M 103.688 43.889 C 103.688 47.116 102.204 50.133 101.513 53.152 C 100.798 56.268 100.799 59.623 99.432 62.435 C 98.042 65.294 95.384 67.377 93.408 69.833 C 91.422 72.3 89.96 75.332 87.473 77.302 C 85 79.262 81.699 80.009 78.819 81.388 C 75.985 82.745 73.348 84.853 70.208 85.561 C 67.165 86.247 63.874 85.5 60.622 85.5 C 57.372 85.5 54.079 86.247 51.037 85.561 C 47.896 84.853 45.259 82.744 42.425 81.388 C 39.544 80.009 36.244 79.262 33.77 77.302 C 31.283 75.331 29.822 72.299 27.836 69.833 C 25.86 67.377 23.202 65.294 21.812 62.435 C 20.445 59.623 20.446 56.268 19.732 53.152 C 19.04 50.133 17.556 47.116 17.556 43.889 C 17.556 40.663 19.04 37.646 19.732 34.628 C 20.446 31.51 20.445 28.156 21.812 25.343 C 23.202 22.485 25.86 20.401 27.837 17.945 C 29.822 15.478 31.283 12.446 33.771 10.477 C 36.244 8.516 39.545 7.77 42.426 6.391 C 45.259 5.035 47.896 2.926 51.037 2.217 C 54.079 1.531 57.372 2.28 60.622 2.28 C 63.874 2.28 67.165 1.531 70.208 2.217 C 73.348 2.926 75.985 5.035 78.819 6.391 C 81.699 7.771 85 8.516 87.473 10.477 C 89.961 12.447 91.422 15.479 93.408 17.945 C 95.384 20.401 98.042 22.485 99.432 25.343 C 100.799 28.156 100.798 31.51 101.513 34.628 C 102.204 37.646 103.688 40.663 103.688 43.889 Z" fill="#F7F4F0"/>
  <path d="M 60.621 83.827 C 61.754 83.827 62.89 83.918 63.989 84.006 C 66.055 84.171 68.006 84.326 69.836 83.91 C 71.747 83.473 73.534 82.419 75.261 81.401 C 76.182 80.859 77.132 80.298 78.104 79.826 C 79.098 79.345 80.143 78.938 81.154 78.544 C 83.097 77.787 84.934 77.071 86.433 75.869 C 87.938 74.66 89.039 73.019 90.204 71.281 C 90.809 70.379 91.435 69.446 92.12 68.582 C 92.801 67.725 93.564 66.911 94.302 66.123 C 95.733 64.593 97.086 63.15 97.928 61.393 C 98.756 59.669 99.04 57.71 99.342 55.636 C 99.499 54.556 99.66 53.439 99.907 52.351 C 100.144 51.303 100.474 50.25 100.793 49.233 C 101.397 47.313 102.02 45.328 102.02 43.337 C 102.02 41.346 101.397 39.361 100.793 37.441 C 100.474 36.424 100.144 35.372 99.907 34.324 C 99.66 33.236 99.499 32.119 99.342 31.039 C 99.041 28.964 98.756 27.005 97.928 25.281 C 97.086 23.525 95.734 22.082 94.303 20.552 C 93.565 19.765 92.802 18.95 92.12 18.092 C 91.435 17.228 90.809 16.295 90.204 15.393 C 89.039 13.655 87.938 12.014 86.433 10.806 C 84.935 9.604 83.098 8.888 81.154 8.131 C 80.143 7.736 79.099 7.329 78.104 6.848 C 77.133 6.377 76.182 5.816 75.262 5.274 C 73.534 4.255 71.748 3.202 69.836 2.765 C 68.006 2.347 66.055 2.503 63.989 2.668 C 62.89 2.756 61.754 2.848 60.621 2.848 C 59.488 2.848 58.351 2.756 57.252 2.668 C 55.187 2.503 53.235 2.347 51.407 2.765 C 49.494 3.202 47.708 4.254 45.981 5.274 C 45.06 5.816 44.11 6.377 43.139 6.847 C 42.145 7.329 41.1 7.736 40.09 8.13 C 38.145 8.888 36.308 9.604 34.81 10.806 C 33.305 12.014 32.204 13.654 31.04 15.392 C 30.434 16.295 29.808 17.228 29.122 18.092 C 28.441 18.95 27.678 19.765 26.94 20.552 C 25.508 22.082 24.156 23.525 23.313 25.281 C 22.486 27.005 22.201 28.964 21.9 31.039 C 21.744 32.119 21.582 33.236 21.336 34.324 C 21.099 35.372 20.769 36.424 20.449 37.441 C 19.846 39.361 19.223 41.346 19.223 43.337 C 19.223 45.328 19.846 47.313 20.449 49.233 C 20.769 50.25 21.099 51.303 21.336 52.351 C 21.582 53.439 21.744 54.556 21.9 55.636 C 22.201 57.71 22.486 59.669 23.313 61.393 C 24.156 63.149 25.508 64.593 26.94 66.122 C 27.678 66.91 28.441 67.724 29.122 68.582 C 29.807 69.446 30.434 70.379 31.039 71.282 C 32.203 73.019 33.304 74.66 34.809 75.868 C 36.307 77.07 38.144 77.786 40.089 78.544 C 41.1 78.937 42.144 79.345 43.139 79.826 C 44.11 80.297 45.06 80.859 45.981 81.401 C 47.708 82.419 49.494 83.473 51.407 83.91 C 53.236 84.327 55.188 84.171 57.253 84.006 C 58.352 83.918 59.488 83.827 60.621 83.827 Z M 67.139 85.851 C 66.041 85.851 64.939 85.764 63.857 85.676 C 62.791 85.591 61.688 85.503 60.621 85.503 C 59.554 85.503 58.451 85.591 57.385 85.676 C 55.286 85.844 53.115 86.019 51.037 85.543 C 48.873 85.049 46.974 83.929 45.136 82.845 C 44.205 82.296 43.324 81.777 42.413 81.335 C 41.479 80.882 40.467 80.488 39.486 80.106 C 37.51 79.336 35.467 78.541 33.768 77.178 C 32.064 75.81 30.84 73.984 29.656 72.218 C 29.07 71.343 28.464 70.439 27.819 69.627 C 27.18 68.823 26.474 68.07 25.725 67.27 C 24.271 65.716 22.767 64.109 21.812 62.122 C 20.873 60.165 20.556 57.985 20.251 55.877 C 20.099 54.83 19.942 53.746 19.71 52.723 C 19.488 51.741 19.183 50.767 18.859 49.736 C 18.218 47.696 17.556 45.587 17.556 43.337 C 17.556 41.088 18.218 38.978 18.859 36.937 C 19.183 35.906 19.488 34.934 19.71 33.953 C 19.942 32.928 20.099 31.845 20.251 30.796 C 20.556 28.689 20.873 26.509 21.812 24.554 C 22.767 22.565 24.271 20.958 25.725 19.404 C 26.474 18.606 27.18 17.851 27.819 17.047 C 28.464 16.235 29.07 15.33 29.656 14.456 C 30.84 12.689 32.065 10.864 33.769 9.497 C 35.468 8.134 37.511 7.338 39.487 6.568 C 40.467 6.187 41.48 5.791 42.414 5.339 C 43.325 4.897 44.205 4.378 45.137 3.828 C 46.974 2.745 48.873 1.625 51.037 1.131 C 53.115 0.657 55.286 0.83 57.384 0.998 C 58.451 1.084 59.554 1.171 60.621 1.171 C 61.688 1.171 62.791 1.084 63.857 0.998 C 65.956 0.83 68.127 0.656 70.206 1.131 C 72.369 1.625 74.269 2.745 76.106 3.828 C 77.038 4.378 77.918 4.897 78.828 5.339 C 79.763 5.792 80.776 6.187 81.756 6.568 C 83.731 7.338 85.775 8.134 87.473 9.497 C 89.178 10.864 90.402 12.69 91.586 14.457 C 92.172 15.331 92.78 16.235 93.425 17.047 C 94.062 17.852 94.769 18.606 95.516 19.404 C 96.972 20.958 98.476 22.565 99.43 24.554 C 100.369 26.509 100.685 28.689 100.992 30.796 C 101.144 31.845 101.301 32.928 101.533 33.953 C 101.755 34.934 102.06 35.906 102.383 36.937 C 103.024 38.978 103.688 41.088 103.688 43.337 C 103.688 45.587 103.024 47.696 102.384 49.736 C 102.06 50.767 101.755 51.741 101.533 52.723 C 101.301 53.746 101.144 54.83 100.992 55.878 C 100.685 57.985 100.369 60.165 99.43 62.122 C 98.476 64.11 96.971 65.717 95.516 67.271 C 94.768 68.07 94.062 68.824 93.424 69.628 C 92.779 70.439 92.173 71.343 91.586 72.218 C 90.402 73.984 89.178 75.81 87.473 77.178 C 85.774 78.541 83.731 79.336 81.756 80.107 C 80.776 80.488 79.763 80.883 78.828 81.335 C 77.918 81.777 77.037 82.296 76.106 82.845 C 74.269 83.929 72.368 85.049 70.206 85.543 C 69.199 85.773 68.171 85.851 67.139 85.851 Z" fill="#FEA900"/>
  <path d="M 60.621 81.096 C 61.665 81.096 62.714 81.18 63.731 81.261 C 65.665 81.416 67.49 81.562 69.221 81.167 C 71.028 80.755 72.701 79.769 74.319 78.816 C 75.168 78.316 76.047 77.798 76.94 77.365 C 77.855 76.922 78.821 76.546 79.755 76.182 C 81.574 75.474 83.295 74.805 84.711 73.67 C 86.134 72.529 87.164 70.994 88.254 69.369 C 88.814 68.536 89.393 67.674 90.024 66.879 C 90.652 66.092 91.356 65.34 92.038 64.612 C 93.318 63.245 94.643 61.831 95.44 60.173 C 96.222 58.545 96.489 56.712 96.77 54.772 C 96.916 53.774 97.065 52.744 97.292 51.743 C 97.51 50.78 97.815 49.809 98.111 48.868 C 98.675 47.073 99.259 45.216 99.259 43.337 C 99.259 41.458 98.675 39.601 98.111 37.806 C 97.815 36.867 97.51 35.895 97.292 34.932 C 97.065 33.93 96.916 32.9 96.77 31.903 C 96.489 29.962 96.222 28.131 95.44 26.502 C 94.643 24.844 93.319 23.43 92.039 22.063 C 91.356 21.336 90.652 20.583 90.024 19.795 C 89.393 19.001 88.814 18.14 88.255 17.307 C 87.164 15.681 86.134 14.146 84.711 13.006 C 83.295 11.87 81.574 11.201 79.755 10.492 C 78.822 10.129 77.855 9.753 76.94 9.31 C 76.048 8.877 75.168 8.36 74.319 7.859 C 72.701 6.906 71.028 5.921 69.221 5.508 C 67.489 5.112 65.665 5.259 63.731 5.414 C 62.714 5.495 61.665 5.578 60.621 5.578 C 59.577 5.578 58.528 5.495 57.512 5.414 C 55.577 5.26 53.751 5.113 52.021 5.508 C 50.214 5.921 48.542 6.906 46.925 7.857 C 46.074 8.36 45.196 8.877 44.302 9.31 C 43.387 9.753 42.422 10.129 41.489 10.491 C 39.667 11.2 37.947 11.87 36.531 13.006 C 35.108 14.146 34.078 15.681 32.987 17.307 C 32.428 18.14 31.849 19.001 31.218 19.795 C 30.591 20.583 29.887 21.336 29.205 22.063 C 27.923 23.429 26.598 24.844 25.803 26.501 C 25.02 28.131 24.753 29.962 24.471 31.903 C 24.327 32.9 24.177 33.93 23.95 34.932 C 23.732 35.895 23.428 36.867 23.132 37.806 C 22.567 39.601 21.984 41.458 21.984 43.337 C 21.984 45.217 22.567 47.073 23.132 48.868 C 23.428 49.809 23.732 50.78 23.95 51.743 C 24.177 52.744 24.327 53.774 24.471 54.771 C 24.753 56.711 25.02 58.544 25.803 60.172 C 26.598 61.831 27.923 63.244 29.205 64.612 C 29.887 65.339 30.591 66.091 31.218 66.879 C 31.849 67.674 32.428 68.535 32.987 69.368 C 34.078 70.993 35.108 72.529 36.53 73.67 C 37.947 74.805 39.667 75.474 41.488 76.182 C 42.421 76.546 43.387 76.922 44.302 77.365 C 45.196 77.797 46.074 78.316 46.925 78.817 C 48.542 79.769 50.214 80.755 52.021 81.167 C 53.752 81.562 55.577 81.416 57.511 81.261 C 58.528 81.18 59.577 81.096 60.621 81.096 Z M 54.571 82.538 C 53.628 82.538 52.689 82.468 51.775 82.259 C 49.799 81.808 48.051 80.778 46.36 79.783 C 45.49 79.27 44.67 78.786 43.816 78.374 C 42.942 77.949 41.997 77.582 41.084 77.227 C 39.265 76.519 37.384 75.787 35.835 74.544 C 34.278 73.296 33.151 71.618 32.062 69.994 C 31.514 69.179 30.95 68.337 30.346 67.577 C 29.748 66.826 29.058 66.09 28.392 65.379 C 27.054 63.951 25.669 62.473 24.797 60.66 C 23.94 58.875 23.649 56.872 23.368 54.933 C 23.226 53.958 23.079 52.949 22.863 51.991 C 22.654 51.073 22.37 50.166 22.067 49.206 C 21.478 47.33 20.868 45.389 20.868 43.337 C 20.868 41.285 21.478 39.344 22.067 37.469 C 22.37 36.509 22.654 35.602 22.863 34.684 C 23.079 33.726 23.226 32.717 23.368 31.741 C 23.65 29.803 23.94 27.798 24.797 26.015 C 25.669 24.202 27.054 22.725 28.392 21.296 C 29.059 20.584 29.748 19.849 30.346 19.096 C 30.95 18.337 31.514 17.496 32.062 16.681 C 33.151 15.057 34.278 13.378 35.835 12.13 C 37.385 10.888 39.265 10.156 41.085 9.447 C 41.998 9.092 42.943 8.725 43.817 8.3 C 44.67 7.887 45.49 7.405 46.36 6.892 C 48.051 5.896 49.799 4.866 51.775 4.416 C 53.671 3.983 55.668 4.143 57.601 4.298 C 58.594 4.376 59.623 4.459 60.621 4.459 C 61.619 4.459 62.648 4.376 63.641 4.298 C 65.574 4.143 67.571 3.983 69.469 4.416 C 71.444 4.866 73.192 5.896 74.883 6.892 C 75.752 7.405 76.572 7.887 77.425 8.3 C 78.301 8.725 79.245 9.092 80.157 9.448 C 81.977 10.156 83.858 10.889 85.408 12.13 C 86.964 13.378 88.091 15.057 89.18 16.681 C 89.728 17.496 90.292 18.337 90.896 19.096 C 91.495 19.849 92.184 20.584 92.851 21.296 C 94.19 22.725 95.574 24.202 96.445 26.015 C 97.302 27.799 97.593 29.803 97.874 31.741 C 98.016 32.717 98.164 33.726 98.379 34.684 C 98.588 35.602 98.873 36.509 99.175 37.469 C 99.765 39.345 100.375 41.285 100.375 43.337 C 100.375 45.388 99.765 47.329 99.175 49.206 C 98.873 50.165 98.588 51.073 98.379 51.991 C 98.164 52.949 98.016 53.958 97.874 54.934 C 97.593 56.872 97.302 58.876 96.445 60.66 C 95.574 62.473 94.189 63.951 92.85 65.38 C 92.184 66.091 91.494 66.827 90.896 67.578 C 90.292 68.337 89.728 69.18 89.179 69.995 C 88.09 71.619 86.964 73.296 85.408 74.544 C 83.857 75.787 81.977 76.52 80.157 77.227 C 79.245 77.582 78.301 77.95 77.425 78.374 C 76.572 78.787 75.752 79.27 74.883 79.783 C 73.192 80.778 71.444 81.808 69.469 82.259 C 67.571 82.691 65.574 82.532 63.642 82.378 C 62.648 82.298 61.62 82.216 60.621 82.216 C 59.623 82.216 58.594 82.298 57.6 82.378 C 56.601 82.458 55.582 82.538 54.571 82.538 Z" fill="#FEA900"/>
  <path d="M 49.808 6.526 C 46.556 9.092 47.395 7.205 43.261 9.422 C 42.158 10.013 41.84 11.219 39.714 11.917 C 34.895 13.5 36.158 16.438 29.27 21.954 C 26.936 23.823 24.729 28.054 24.962 30.271 C 25.22 32.743 24.888 33.748 24.732 34.785 C 24.563 35.912 23.485 39.478 22.802 40.881 C 20.845 44.903 23.329 43.896 23.838 49.85 C 23.841 49.88 24.801 56.06 24.801 56.06 C 25.636 61.183 27.253 61.367 28.993 63.595 C 32.798 68.466 33.187 72.179 38.332 74.621 C 38.854 74.867 44.69 77.322 45.249 77.456 C 46.243 77.693 47.279 77.799 48.212 78.245 C 50.37 79.277 49.839 80.641 53.302 81.21 C 56.554 81.742 57.028 81.155 58.752 80.488 C 60.705 79.733 62.973 80.238 65.005 80.391 C 68.553 80.657 66.841 80.88 71.264 80.153 C 74.25 79.662 74.075 78.373 75.74 76.97 C 77.098 75.826 81.472 74.731 83.576 73.367 C 87.858 70.589 87.718 68.851 89.112 66.773 C 90.252 65.074 93.887 62.445 95.117 60.08 C 95.613 59.125 95.649 58.48 96.167 54.257 C 96.916 48.157 97.636 50.892 98.941 46.454 C 100.046 42.696 99.552 42.551 98.333 40.697 C 97.766 39.836 97.421 38.977 97.422 37.935 C 97.423 35.885 98.341 35.563 95.781 28.964 C 93.701 23.6 92.495 24.737 91.197 21.638 C 89.808 18.321 89.405 19.002 87.562 16.815 C 86.169 15.162 85.94 13.107 84.273 12.241 C 83.445 11.811 78.348 10.525 75.78 8.94 C 74.577 8.195 70.911 5.438 67.886 5.608 C 66.854 5.667 65.842 5.935 64.809 6.014 C 60.379 6.354 61.385 6.668 55.488 5.775 C 52.768 5.364 52.332 4.534 49.808 6.526 Z M 55.52 82.538 C 50.365 82.538 49.263 80.753 48.622 80.428 C 48.253 80.242 47.832 80.188 47.461 80.009 C 46.803 79.691 46.569 78.931 45.828 78.732 C 42.577 77.858 46.613 79.218 40.33 76.69 C 31.873 73.286 32.795 70.5 28.21 64.428 C 26.959 62.771 25.312 61.622 24.538 59.619 C 23.515 56.976 23.407 53.246 22.939 51.682 C 22.814 51.261 22.554 50.906 22.351 50.523 C 21.895 49.663 22.018 48.635 21.792 47.7 C 21.205 45.281 20.709 47.046 20.916 41.694 C 20.956 40.658 21.514 39.802 21.807 38.828 C 24.063 31.328 23.304 33.551 23.045 31.244 C 22.97 30.572 23.277 26.151 25.405 24.207 C 26.168 23.511 27.056 22.949 27.723 22.149 C 28.396 21.344 28.89 20.41 29.475 19.543 C 30.058 18.678 30.733 17.874 31.331 17.016 C 33.198 14.344 32.702 14.763 35.579 12.563 C 36.414 11.924 37.207 11.177 38.167 10.726 C 39.043 10.315 40.03 10.153 40.916 9.765 C 41.375 9.562 41.66 9.192 42.038 8.881 C 42.425 8.563 42.866 8.311 43.31 8.082 C 46.219 6.592 46.601 7.611 48.862 5.834 C 51.181 4.013 51.784 3.825 54.768 4.484 C 57.083 4.993 56.814 4.493 57.952 4.565 C 59.028 4.631 60.027 4.909 61.12 4.851 C 63.813 4.707 63.818 4.3 65.832 4.663 C 66.388 4.763 66.989 4.554 67.55 4.502 C 71.365 4.147 75.153 7.189 76.108 7.811 C 78.755 9.527 83.79 10.68 84.924 11.309 C 86.787 12.342 87.124 14.532 88.407 16.068 C 90.18 18.191 90.452 17.377 92.108 20.874 C 92.952 22.66 95.023 22.239 97.782 31.315 C 98.106 32.379 98.426 33.464 98.632 34.558 C 98.836 35.638 98.464 36.726 98.736 37.79 C 98.846 38.223 99.033 38.637 99.13 39.073 C 99.251 39.612 99.288 40.061 99.589 40.544 C 100.118 41.393 100.375 42.272 100.375 43.274 C 100.374 45.092 100.185 47.107 99.313 48.74 C 97.685 51.788 97.837 49.33 96.854 57.85 C 96.249 63.094 91.542 64.869 89.819 67.768 C 88.669 69.703 88.635 70.801 86.189 72.787 C 82.913 75.445 82.652 75.093 78.265 76.917 C 73.945 78.712 76.29 80.595 70.642 81.386 C 65.967 82.04 70.263 82.148 61.272 81.837 C 59.332 81.771 59.14 81.58 58.464 81.833 C 57.461 82.207 56.61 82.538 55.52 82.538 Z" fill="#FEA900"/>
  <path d="M 118.249 41.235 C 117.358 40.37 115.874 39.957 113.848 40 C 111.339 40.056 109.323 40.417 107.374 40.765 C 104.828 41.22 102.197 41.689 98.6 41.429 C 97.724 41.365 96.908 40.999 96.298 40.396 C 96 40.102 95.631 39.881 95.213 39.779 L 94.34 39.566 L 92.94 44.629 L 93.237 38.654 L 93.237 37.692 C 93.237 36.846 92.516 36.16 91.626 36.16 L 29.617 36.16 C 28.727 36.16 28.005 36.846 28.005 37.692 L 28.005 38.864 C 28.005 39.119 27.823 39.342 27.563 39.405 L 26.029 39.779 C 25.616 39.879 25.245 40.089 24.955 40.384 C 24.311 41.042 23.377 41.382 22.433 41.443 C 18.946 41.671 16.365 41.211 13.868 40.765 C 11.919 40.417 9.904 40.056 7.395 40 C 5.353 39.95 3.866 40.375 2.977 41.251 C 2.053 42.162 2.096 43.288 2.097 43.299 L 2.099 43.337 L 2.097 43.376 C 2.094 43.418 2.053 44.527 2.993 45.439 C 3.885 46.306 5.359 46.715 7.395 46.676 C 9.904 46.619 11.919 46.259 13.869 45.911 C 15.909 45.546 18.004 45.171 20.605 45.171 C 21.252 45.171 21.928 45.194 22.643 45.247 C 23.518 45.31 24.333 45.676 24.944 46.28 C 25.242 46.575 25.612 46.795 26.03 46.897 L 26.902 47.109 L 28.302 42.046 L 28.005 48.022 L 28.005 48.984 C 28.005 49.829 28.727 50.515 29.617 50.515 L 91.626 50.515 C 92.516 50.515 93.237 49.829 93.237 48.984 L 93.237 47.811 C 93.237 47.556 93.419 47.333 93.679 47.27 L 95.213 46.897 C 95.631 46.795 96.001 46.575 96.298 46.28 C 96.908 45.676 97.725 45.31 98.6 45.247 C 102.193 44.982 104.828 45.456 107.373 45.911 C 109.323 46.259 111.339 46.619 113.848 46.676 C 115.878 46.718 117.376 46.299 118.266 45.423 C 119.191 44.514 119.148 43.387 119.147 43.376 L 119.144 43.337 L 119.147 43.299 C 119.149 43.257 119.19 42.148 118.249 41.235 Z" fill="#F7F4F0"/>
  <path d="M 118.905 43.93 C 118.906 43.942 118.949 45.117 118.028 46.068 C 117.142 46.982 115.65 47.419 113.628 47.374 C 111.13 47.316 109.122 46.94 107.18 46.576 C 104.645 46.101 102.021 45.607 98.443 45.883 C 97.572 45.949 96.758 46.331 96.151 46.961 C 95.855 47.269 95.487 47.499 95.071 47.605 L 93.543 47.995 C 93.284 48.061 93.103 48.293 93.103 48.56 L 93.103 49.784 C 93.103 50.666 92.385 51.383 91.498 51.383 L 29.745 51.383 C 28.859 51.383 28.14 50.666 28.14 49.784 L 28.14 48.78 L 28.435 42.542 L 27.041 47.827 L 26.173 47.605 C 25.757 47.499 25.389 47.269 25.092 46.961 C 24.483 46.331 23.671 45.949 22.801 45.883 C 22.088 45.828 21.414 45.804 20.771 45.804 C 18.181 45.804 16.094 46.196 14.062 46.576 C 12.12 46.94 10.114 47.316 7.615 47.374 C 5.587 47.416 4.12 46.988 3.232 46.084 C 2.295 45.132 2.336 43.973 2.339 43.93 L 2.341 43.889 L 2.339 43.85 C 2.338 43.838 2.295 42.662 3.215 41.712 C 4.101 40.797 5.581 40.353 7.615 40.405 C 10.114 40.464 12.12 40.841 14.061 41.204 C 16.548 41.669 19.118 42.15 22.591 41.912 C 23.532 41.848 24.461 41.493 25.103 40.806 C 25.392 40.498 25.761 40.279 26.172 40.175 L 27.7 39.785 C 27.958 39.718 28.14 39.485 28.14 39.22 L 28.14 37.996 C 28.14 37.113 28.859 36.396 29.745 36.396 L 91.498 36.396 C 92.385 36.396 93.103 37.113 93.103 37.996 L 93.103 39 L 92.806 45.238 L 94.201 39.953 L 95.071 40.175 C 95.487 40.281 95.854 40.512 96.151 40.819 C 96.758 41.448 97.571 41.83 98.443 41.897 C 102.025 42.169 104.645 41.679 107.181 41.204 C 109.122 40.841 111.13 40.464 113.628 40.405 C 115.646 40.36 117.124 40.792 118.012 41.695 C 118.948 42.648 118.907 43.805 118.905 43.85 L 118.902 43.889 L 118.905 43.93 Z M 118.997 40.78 C 117.838 39.586 116.02 38.997 113.596 39.065 C 110.989 39.125 108.926 39.513 106.932 39.885 C 104.37 40.366 101.949 40.82 98.545 40.56 C 97.998 40.517 97.487 40.275 97.109 39.875 C 96.646 39.387 96.057 39.042 95.406 38.875 L 94.45 38.631 L 94.45 37.996 C 94.45 36.374 93.125 35.055 91.498 35.055 L 29.745 35.055 C 28.117 35.055 26.792 36.374 26.792 37.996 L 26.792 38.631 L 25.838 38.875 C 25.185 39.042 24.597 39.387 24.135 39.875 C 23.755 40.275 23.245 40.517 22.698 40.56 C 19.295 40.821 16.874 40.366 14.31 39.885 C 12.317 39.513 10.255 39.125 7.647 39.065 C 5.224 39.005 3.405 39.586 2.247 40.78 C 1.001 42.065 0.985 43.616 0.992 43.889 C 0.985 44.163 1.001 45.714 2.247 46.999 C 3.405 48.194 5.226 48.777 7.647 48.715 C 10.255 48.654 12.317 48.267 14.311 47.895 C 16.874 47.414 19.295 46.961 22.698 47.22 C 23.245 47.261 23.754 47.505 24.135 47.905 C 24.597 48.392 25.185 48.738 25.838 48.905 L 26.792 49.148 L 26.792 49.784 C 26.792 51.405 28.117 52.724 29.745 52.724 L 91.498 52.724 C 93.125 52.724 94.45 51.405 94.45 49.784 L 94.45 49.148 L 95.406 48.905 C 96.058 48.738 96.646 48.393 97.109 47.905 C 97.487 47.505 97.998 47.261 98.545 47.22 C 101.951 46.959 104.369 47.414 106.932 47.895 C 108.926 48.267 110.989 48.654 113.596 48.715 C 116.03 48.777 117.838 48.194 118.997 46.999 C 120.242 45.714 120.259 44.163 120.251 43.889 C 120.259 43.616 120.242 42.065 118.997 40.78 Z" fill="#6E4115"/>
  <path d="M 117.023 41.534 C 115.571 40.381 113.49 40.5 111.834 40.72 C 109.832 40.983 107.879 41.576 105.903 42.012 C 104.005 42.431 102.087 42.707 100.156 42.709 C 98.61 42.712 97.145 42.475 95.958 41.204 C 97.143 42.818 98.858 43.158 100.576 43.264 C 102.736 43.395 104.892 43.132 107.017 42.689 C 109.158 42.242 111.286 41.692 113.465 41.613 C 115.012 41.558 117.668 41.517 118.024 43.889 C 118.144 42.903 117.701 42.068 117.023 41.534 C 117.434 41.857 116.611 41.208 117.023 41.534 Z" fill="#6E4115"/>
  <path d="M 24.537 45.132 C 23.152 44.288 21.101 44.282 19.443 44.288 C 17.387 44.294 15.367 44.529 13.349 44.821 C 11.366 45.108 9.393 45.41 7.37 45.424 C 5.887 45.435 3.554 45.369 3.224 43.889 C 2.92 45.559 5.6 46.029 7.144 46.087 C 9.357 46.17 11.57 45.775 13.72 45.41 C 15.917 45.038 18.131 44.743 20.38 44.69 C 22.139 44.649 23.912 44.703 25.285 45.692 C 25.059 45.485 24.814 45.295 24.537 45.132 C 24.801 45.288 24.011 44.812 24.537 45.132 Z" fill="#6E4115"/>
  <path d="M 57.214 37.237 C 61.068 37.157 64.858 36.744 68.709 36.651 C 72.388 36.562 76.081 36.586 79.743 36.809 C 82.95 37.005 86.106 37.094 89.332 37.038 C 86.011 36.942 82.76 36.745 79.47 36.483 C 75.824 36.193 72.124 36.11 68.442 36.187 C 64.59 36.268 60.803 36.68 56.954 36.775 C 53.274 36.864 49.579 36.839 45.917 36.616 C 42.71 36.42 39.554 36.331 36.328 36.387 C 39.65 36.482 42.9 36.679 46.19 36.941 C 49.836 37.231 53.534 37.313 57.214 37.237 Z" fill="#6E4115"/>
  <path d="M 45.452 42.725 C 48.323 42.555 51.112 41.74 53.982 41.556 C 56.714 41.381 59.466 41.423 62.177 41.859 C 64.617 42.251 66.987 42.444 69.456 42.33 C 66.907 42.135 64.46 41.723 61.953 41.198 C 59.241 40.63 56.46 40.478 53.707 40.634 C 50.835 40.798 48.046 41.615 45.176 41.801 C 42.444 41.978 39.692 41.933 36.982 41.498 C 34.54 41.106 32.17 40.913 29.702 41.029 C 32.25 41.224 34.699 41.636 37.206 42.162 C 39.915 42.73 42.699 42.887 45.452 42.725 Z" fill="#6E4115"/>
  <path d="M 83.606 44.51 C 80.665 43.93 77.644 43.776 74.663 43.967 C 71.677 44.159 68.767 44.952 65.781 45.125 C 62.877 45.294 59.964 45.235 57.081 44.788 C 54.57 44.399 52.114 44.235 49.579 44.346 C 52.267 44.539 54.862 44.954 57.512 45.478 C 60.379 46.044 63.318 46.2 66.224 46.037 C 69.229 45.866 72.16 45.063 75.164 44.876 C 78.125 44.691 81.098 44.749 84.038 45.204 C 86.55 45.592 89.005 45.756 91.541 45.644 C 88.852 45.449 86.257 45.035 83.606 44.51 Z" fill="#6E4115"/>
  <path d="M 62.256 49.478 C 58.759 49.657 55.328 50.463 51.831 50.645 C 48.441 50.82 45.04 50.758 41.67 50.305 C 38.775 49.918 35.929 49.757 33.015 49.867 C 36.125 50.061 39.153 50.478 42.231 51.003 C 45.573 51.573 48.981 51.723 52.36 51.553 C 55.858 51.377 59.289 50.569 62.788 50.388 C 66.178 50.214 69.577 50.276 72.946 50.728 C 75.841 51.115 78.688 51.277 81.602 51.165 C 78.493 50.971 75.464 50.554 72.387 50.029 C 69.044 49.458 65.633 49.305 62.256 49.478 Z" fill="#6E4115"/>
  <path d="M 77.809 40.543 C 79.319 40.453 80.8 40.05 82.31 39.96 C 83.775 39.871 85.243 39.903 86.699 40.128 C 87.948 40.323 89.178 40.403 90.436 40.348 C 89.093 40.252 87.785 40.042 86.457 39.78 C 85.013 39.495 83.541 39.42 82.083 39.506 C 80.571 39.592 79.09 39.998 77.579 40.088 C 76.115 40.175 74.648 40.143 73.192 39.918 C 71.942 39.724 70.713 39.644 69.455 39.699 C 70.798 39.796 72.106 40.005 73.434 40.268 C 74.877 40.553 76.35 40.629 77.809 40.543 Z" fill="#6E4115"/>
  <path d="M 75.863 16.431 L 73.815 16.431 C 73.721 16.431 73.637 16.367 73.608 16.273 L 72.975 14.232 C 72.91 14.022 72.626 14.022 72.561 14.232 L 71.929 16.273 C 71.9 16.367 71.815 16.431 71.721 16.431 L 69.674 16.431 C 69.463 16.431 69.375 16.713 69.546 16.843 L 71.203 18.105 C 71.278 18.163 71.31 18.265 71.282 18.358 L 70.648 20.4 C 70.584 20.611 70.813 20.785 70.983 20.655 L 72.64 19.393 C 72.716 19.335 72.82 19.335 72.897 19.393 L 74.553 20.655 C 74.723 20.785 74.952 20.611 74.888 20.4 L 74.255 18.358 C 74.226 18.265 74.259 18.163 74.334 18.105 L 75.991 16.843 C 76.161 16.713 76.074 16.431 75.863 16.431 Z" fill="#D91111"/>
  <path d="M 64.747 12.799 L 62.017 12.799 C 61.891 12.799 61.781 12.714 61.742 12.589 L 60.897 9.868 C 60.811 9.587 60.432 9.587 60.346 9.868 L 59.502 12.589 C 59.463 12.714 59.351 12.799 59.226 12.799 L 56.496 12.799 C 56.214 12.799 56.097 13.177 56.324 13.349 L 58.534 15.031 C 58.635 15.108 58.678 15.245 58.639 15.371 L 57.795 18.092 C 57.709 18.373 58.014 18.605 58.242 18.432 L 60.452 16.75 C 60.553 16.673 60.69 16.673 60.792 16.75 L 63.002 18.432 C 63.229 18.605 63.535 18.373 63.447 18.092 L 62.604 15.371 C 62.565 15.245 62.608 15.108 62.709 15.031 L 64.918 13.349 C 65.146 13.177 65.029 12.799 64.747 12.799 Z" fill="#D91111"/>
  <path d="M 51.57 16.431 L 49.521 16.431 C 49.428 16.431 49.344 16.367 49.315 16.273 L 48.682 14.232 C 48.616 14.022 48.333 14.022 48.268 14.232 L 47.635 16.273 C 47.606 16.367 47.522 16.431 47.428 16.431 L 45.38 16.431 C 45.169 16.431 45.081 16.713 45.253 16.843 L 46.909 18.105 C 46.985 18.163 47.017 18.265 46.988 18.358 L 46.355 20.4 C 46.29 20.611 46.519 20.785 46.69 20.655 L 48.347 19.393 C 48.423 19.335 48.526 19.335 48.603 19.393 L 50.26 20.655 C 50.43 20.785 50.659 20.611 50.594 20.4 L 49.962 18.358 C 49.932 18.265 49.964 18.163 50.04 18.105 L 51.697 16.843 C 51.868 16.713 51.781 16.431 51.57 16.431 Z" fill="#D91111"/>
  <path d="M 41.434 24.013 L 42.953 24.013 L 42.953 30.638 L 41.434 30.638 L 41.434 27.909 L 40.055 27.909 L 40.055 30.638 L 38.536 30.638 L 38.536 24.013 L 40.055 24.013 L 40.055 26.815 L 41.434 26.815 L 41.434 24.013 Z" fill="#00722A"/>
  <path d="M 46.146 29.284 L 46.146 25.368 C 46.146 25.194 46.072 25.107 45.924 25.107 L 45.513 25.107 C 45.359 25.107 45.282 25.194 45.282 25.368 L 45.282 29.284 C 45.282 29.458 45.359 29.545 45.513 29.545 L 45.924 29.545 C 46.072 29.545 46.146 29.458 46.146 29.284 Z M 45.145 24.013 L 46.292 24.013 C 47.011 24.013 47.37 24.395 47.37 25.158 L 47.37 29.482 C 47.37 30.253 47.011 30.638 46.292 30.638 L 45.145 30.638 C 44.42 30.638 44.057 30.253 44.057 29.482 L 44.057 25.158 C 44.057 24.395 44.42 24.013 45.145 24.013 Z" fill="#00722A"/>
  <path d="M 51.787 24.013 L 51.787 25.107 L 50.757 25.107 L 50.757 30.638 L 49.497 30.638 L 49.497 25.107 L 48.474 25.107 L 48.474 24.013 L 51.787 24.013 Z" fill="#00722A"/>
  <path d="M 55.643 25.206 L 55.643 25.946 C 55.643 26.129 55.74 26.33 55.933 26.547 C 56.137 26.415 56.278 26.308 56.352 26.226 C 56.426 26.145 56.462 26.031 56.462 25.887 L 56.462 25.206 C 56.462 25.114 56.443 25.05 56.406 25.014 C 56.366 24.978 56.298 24.959 56.203 24.959 L 55.894 24.959 C 55.804 24.959 55.74 24.978 55.702 25.014 C 55.663 25.05 55.643 25.114 55.643 25.206 Z M 55.566 29.318 L 56.944 29.318 L 55.74 27.967 L 55.547 28.084 C 55.387 28.183 55.307 28.331 55.307 28.529 L 55.307 29.071 C 55.307 29.235 55.392 29.318 55.566 29.318 Z M 57.561 30.283 L 55.219 30.283 C 54.404 30.283 53.996 29.919 53.996 29.189 L 53.996 28.45 C 53.996 28.16 54.05 27.937 54.16 27.779 C 54.27 27.62 54.475 27.45 54.776 27.266 L 54.989 27.139 C 54.737 26.856 54.56 26.626 54.454 26.449 C 54.349 26.271 54.295 26.08 54.295 25.876 L 54.295 25.097 C 54.295 24.375 54.702 24.013 55.518 24.013 L 56.568 24.013 C 57.372 24.013 57.773 24.375 57.773 25.097 L 57.773 25.867 C 57.773 26.215 57.703 26.484 57.566 26.674 C 57.428 26.865 57.195 27.065 56.868 27.277 L 56.684 27.393 L 57.744 28.608 L 57.744 27.888 L 58.833 27.888 L 58.833 29.189 C 58.833 29.386 58.798 29.568 58.726 29.731 L 59.517 30.638 L 58.13 30.638 L 57.802 30.274 C 57.75 30.281 57.67 30.283 57.561 30.283 Z" fill="#00722A"/>
  <path d="M 65.038 24.013 L 65.038 25.107 L 63.664 25.107 L 63.664 30.638 L 61.983 30.638 L 61.983 25.107 L 60.621 25.107 L 60.621 24.013 L 65.038 24.013 Z" fill="#00722A"/>
  <path d="M 66.744 28.357 L 67.712 28.357 L 67.228 25.555 L 66.744 28.357 Z M 68.114 30.638 L 67.909 29.441 L 66.557 29.441 L 66.352 30.638 L 65.038 30.638 L 66.38 24.013 L 68.075 24.013 L 69.455 30.638 L 68.114 30.638 Z" fill="#00722A"/>
  <path d="M 72.192 29.284 L 72.192 28.086 C 72.192 27.995 72.169 27.931 72.122 27.893 C 72.074 27.855 71.994 27.837 71.875 27.837 L 70.841 27.837 C 69.917 27.837 69.455 27.448 69.455 26.67 L 69.455 25.158 C 69.455 24.395 69.949 24.013 70.935 24.013 L 72.37 24.013 C 73.355 24.013 73.85 24.395 73.85 25.158 L 73.85 26.023 L 72.169 26.023 L 72.169 25.368 C 72.169 25.194 72.062 25.107 71.851 25.107 L 71.451 25.107 C 71.241 25.107 71.137 25.194 71.137 25.368 L 71.137 26.534 C 71.137 26.624 71.158 26.688 71.205 26.727 C 71.253 26.765 71.334 26.784 71.451 26.784 L 72.461 26.784 C 72.963 26.784 73.324 26.879 73.542 27.07 C 73.764 27.262 73.872 27.544 73.872 27.919 L 73.872 29.482 C 73.872 30.253 73.379 30.638 72.391 30.638 L 70.97 30.638 C 69.976 30.638 69.477 30.253 69.477 29.482 L 69.477 28.629 L 71.158 28.629 L 71.158 29.284 C 71.158 29.458 71.266 29.545 71.476 29.545 L 71.875 29.545 C 72.086 29.545 72.192 29.458 72.192 29.284 Z" fill="#00722A"/>
  <path d="M 78.289 24.013 L 78.289 25.107 L 76.915 25.107 L 76.915 30.638 L 75.234 30.638 L 75.234 25.107 L 73.872 25.107 L 73.872 24.013 L 78.289 24.013 Z" fill="#00722A"/>
  <path d="M 81.226 30.638 L 79.841 30.638 L 79.841 28.493 L 78.29 24.013 L 79.704 24.013 L 80.529 27.128 L 81.292 24.013 L 82.707 24.013 L 81.226 28.503 L 81.226 30.638 Z" fill="#00722A"/>
  <path d="M 48.646 59.279 C 48.646 57.904 47.599 57.454 45.505 57.664 C 45.287 57.685 45.199 57.737 45.155 57.83 C 45.083 57.94 45.01 58.05 44.937 58.16 C 44.45 60.041 43.962 61.918 43.475 63.792 C 43.781 63.768 44.086 63.743 44.392 63.716 C 46.617 63.52 47.97 62.391 48.493 60.315 C 48.603 59.926 48.646 59.566 48.646 59.279 Z M 44.239 65.301 C 43.934 65.327 43.519 65.316 43.105 65.279 C 42.741 66.671 42.378 68.059 42.013 69.445 C 41.447 71.737 40.661 72.573 39.897 72.599 C 39.155 72.626 38.087 72.289 37.432 71.381 C 38.152 71.38 38.719 71.216 39.242 69.3 C 40.13 65.945 41.018 62.573 41.905 59.188 C 42.079 58.492 42.188 58.02 42.188 57.689 C 42.188 57.246 41.993 57.038 41.534 56.865 C 41.569 56.759 41.607 56.654 41.643 56.549 C 43.359 56.452 45.075 56.302 46.791 56.114 C 49.89 55.765 51.788 56.586 51.787 58.672 C 51.787 59.004 51.744 59.364 51.635 59.757 C 50.936 62.498 48.559 64.912 44.239 65.301 Z" fill="#D91111"/>
  <path d="M 55.132 58.367 C 54.391 58.477 53.888 58.054 53.888 57.381 C 53.888 56.349 54.964 55.117 56.065 54.95 C 56.83 54.835 57.309 55.276 57.309 55.973 C 57.309 57.072 56.185 58.211 55.132 58.367 Z M 50.683 70.206 C 50.683 69.891 50.755 69.501 50.874 69.036 C 51.305 67.477 51.735 65.916 52.166 64.355 C 52.31 63.82 52.405 63.447 52.405 63.2 C 52.405 62.796 52.238 62.639 51.95 62.521 C 52.668 61.84 53.434 61.241 54.295 61.071 C 54.749 61.027 55.228 61.517 55.228 62.258 C 55.228 62.437 55.18 62.624 55.132 62.833 C 54.59 64.806 54.047 66.778 53.506 68.747 C 53.434 68.982 53.41 69.187 53.41 69.344 C 53.41 69.703 53.578 69.86 53.959 69.872 C 53.945 69.934 53.928 69.996 53.912 70.059 C 53.673 70.43 52.549 71.396 51.879 71.485 C 51.401 71.55 50.683 71.351 50.683 70.206 Z" fill="#D91111"/>
  <path d="M 59.693 60.087 C 60.781 59.965 61.317 60.278 61.658 60.432 C 61.786 60.537 61.872 60.608 62.086 60.572 C 62.092 60.571 62.099 60.57 62.106 60.568 C 62.278 60.538 62.598 60.25 63.003 59.797 C 63.886 59.645 64.77 59.495 65.652 59.349 C 65.559 59.741 65.466 60.133 65.374 60.525 C 63.011 63.187 60.647 65.87 58.284 68.535 C 58.312 68.53 58.34 68.526 58.368 68.52 C 59.928 68.258 61.765 70.244 63.109 70.057 C 63.26 70.052 63.473 70.037 63.708 69.997 C 64.392 69.881 65.331 69.595 66.143 69.12 C 65.78 70.479 63.964 71.274 62.961 71.447 C 62.947 71.449 62.933 71.452 62.918 71.455 C 60.697 71.833 59.158 69.46 56.489 69.899 C 56.027 69.974 55.564 70.049 55.1 70.122 C 55.186 69.775 55.271 69.426 55.357 69.08 C 57.514 66.667 59.671 64.228 61.828 61.789 C 61.786 61.797 61.744 61.803 61.7 61.811 C 61.188 61.898 60.867 61.187 60.142 61.31 C 60.128 61.313 60.114 61.315 60.099 61.318 C 59.757 61.376 59.522 61.65 59.522 61.799 C 59.522 61.928 59.693 62.005 60.056 61.964 C 59.736 62.702 58.817 63.498 58.497 63.551 C 57.622 63.698 57.109 63.101 57.109 62.44 C 57.109 61.863 57.43 60.556 59.693 60.087 Z" fill="#D91111"/>
  <path d="M 70.089 58.771 C 71.288 58.668 71.875 59.001 72.251 59.168 C 72.391 59.279 72.487 59.354 72.721 59.324 C 72.729 59.323 72.736 59.322 72.744 59.321 C 72.932 59.296 73.284 59.015 73.731 58.573 C 74.702 58.455 75.673 58.344 76.645 58.245 C 76.543 58.637 76.44 59.029 76.34 59.421 C 73.739 61.987 71.14 64.626 68.538 67.299 C 68.569 67.295 68.602 67.29 68.633 67.285 C 70.348 67.035 72.37 69.092 73.848 68.959 C 74.013 68.96 74.249 68.954 74.507 68.924 C 75.258 68.836 76.292 68.592 77.185 68.16 C 76.785 69.511 74.788 70.22 73.684 70.36 C 73.668 70.362 73.652 70.363 73.637 70.365 C 71.194 70.669 69.502 68.231 66.565 68.672 C 66.056 68.749 65.547 68.827 65.038 68.906 C 65.133 68.553 65.227 68.201 65.321 67.848 C 67.693 65.389 70.066 62.946 72.439 60.547 C 72.391 60.553 72.345 60.559 72.298 60.565 C 71.734 60.638 71.383 59.908 70.582 60.017 C 70.568 60.02 70.552 60.022 70.536 60.025 C 70.16 60.076 69.901 60.35 69.901 60.501 C 69.901 60.631 70.09 60.712 70.489 60.678 C 70.137 61.416 69.125 62.208 68.774 62.259 C 67.81 62.399 67.247 61.794 67.247 61.125 C 67.247 60.545 67.6 59.21 70.089 58.771 Z" fill="#D91111"/>
  <path d="M 77.923 63.446 C 77.923 64.731 78.573 65.376 79.825 65.289 C 80.684 65.229 81.68 64.515 81.798 64.126 C 82.176 62.81 82.555 61.497 82.934 60.186 C 82.98 60.056 82.98 59.928 82.98 59.799 C 82.98 59.095 82.446 58.469 81.472 58.518 C 78.457 58.691 77.923 62.516 77.923 63.446 Z M 81.798 57.241 C 82.494 57.208 83.003 57.317 83.49 57.602 C 83.49 57.609 83.49 57.616 83.49 57.623 C 84.048 57.265 84.511 57.169 85.115 57.141 C 85.694 57.155 86.019 57.457 86.019 58.098 C 86.019 58.333 85.974 58.589 85.88 58.91 C 85.37 60.672 84.859 62.438 84.349 64.208 C 84.325 64.294 84.325 64.359 84.325 64.423 C 84.325 64.872 84.673 65.1 85.068 65.095 C 85.106 65.094 85.145 65.094 85.184 65.094 C 85.169 65.151 85.153 65.208 85.137 65.265 C 84.489 66.107 83.629 66.763 82.516 66.809 C 82.501 66.81 82.485 66.811 82.47 66.811 C 81.935 66.833 81.403 66.37 81.403 65.686 C 81.403 65.6 81.402 65.515 81.426 65.428 C 80.475 66.31 79.385 66.984 78.479 67.057 C 76.369 67.228 74.977 66.408 74.977 64.459 C 74.977 61.585 77.714 57.449 81.798 57.241 Z" fill="#D91111"/>
</svg>